<?xml version="1.0" encoding="UTF-8"?>
<!DOCTYPE svg PUBLIC "-//W3C//DTD SVG 1.1//EN" "http://www.w3.org/Graphics/SVG/1.1/DTD/svg11.dtd">
<svg xmlns="http://www.w3.org/2000/svg" version="1.1" width="593px" height="421px" style="shape-rendering:geometricPrecision; text-rendering:geometricPrecision; image-rendering:optimizeQuality; fill-rule:evenodd; clip-rule:evenodd" xmlns:xlink="http://www.w3.org/1999/xlink">
<g><path style="opacity:0.004" fill="#fefffe" d="M 250.5,3.5 C 251.833,4.16667 251.833,4.16667 250.5,3.5 Z"/></g>
<g><path style="opacity:0.004" fill="#fefffe" d="M 508.5,3.5 C 509.833,4.16667 509.833,4.16667 508.5,3.5 Z"/></g>
<g><path style="opacity:0.004" fill="#fefffe" d="M 534.5,23.5 C 535.833,24.1667 535.833,24.1667 534.5,23.5 Z"/></g>
<g><path style="opacity:0.004" fill="#fefffe" d="M 88.5,25.5 C 89.8333,26.1667 89.8333,26.1667 88.5,25.5 Z"/></g>
<g><path style="opacity:0.004" fill="#fefffe" d="M 458.5,26.5 C 459.833,27.1667 459.833,27.1667 458.5,26.5 Z"/></g>
<g><path style="opacity:0.004" fill="#fefffe" d="M 12.5,28.5 C 13.8333,29.1667 13.8333,29.1667 12.5,28.5 Z"/></g>
<g><path style="opacity:0.004" fill="#fefffe" d="M 191.5,33.5 C 192.833,34.1667 192.833,34.1667 191.5,33.5 Z"/></g>
<g><path style="opacity:0.004" fill="#fefffe" d="M 547.5,34.5 C 548.833,35.1667 548.833,35.1667 547.5,34.5 Z"/></g>
<g><path style="opacity:0.115" fill="#e7e7e7" d="M 373.5,43.5 C 368.333,41.2296 362.999,40.8963 357.5,42.5C 361.531,40.5613 365.864,40.0613 370.5,41C 371.942,41.3768 372.942,42.2101 373.5,43.5 Z"/></g>
<g><path style="opacity:0.999" fill="#020202" d="M 373.5,43.5 C 375.027,43.427 376.027,44.0937 376.5,45.5C 379.799,50.8066 384.466,54.14 390.5,55.5C 390.953,57.5652 391.953,59.2318 393.5,60.5C 394.674,61.5137 395.34,62.847 395.5,64.5C 395.427,66.0269 396.094,67.0269 397.5,67.5C 397.66,69.153 398.326,70.4863 399.5,71.5C 400.461,73.2646 400.795,75.2646 400.5,77.5C 400.565,80.4282 401.232,83.0948 402.5,85.5C 402.5,86.1667 402.5,86.8333 402.5,87.5C 402.307,98.8384 401.973,110.172 401.5,121.5C 401.693,125.566 401.36,129.566 400.5,133.5C 398.227,134.271 397.894,135.604 399.5,137.5C 398.48,142.03 397.147,146.364 395.5,150.5C 394.094,150.973 393.427,151.973 393.5,153.5C 391.707,155.426 390.707,157.759 390.5,160.5C 390.672,161.492 390.338,162.158 389.5,162.5C 388.197,164.142 386.864,165.809 385.5,167.5C 383.326,167.75 381.659,168.75 380.5,170.5C 377.669,171.079 375.336,172.412 373.5,174.5C 371.171,176.278 368.504,177.278 365.5,177.5C 358.167,178.833 350.833,178.833 343.5,177.5C 342.209,177.737 341.209,177.404 340.5,176.5C 340.027,175.094 339.027,174.427 337.5,174.5C 335.833,172.167 333.833,170.167 331.5,168.5C 330.4,167.395 329.733,166.062 329.5,164.5C 329.573,162.973 328.906,161.973 327.5,161.5C 327.34,159.847 326.674,158.514 325.5,157.5C 324.326,156.486 323.66,155.153 323.5,153.5C 323.262,151.596 322.262,150.262 320.5,149.5C 320.167,148.833 319.833,148.167 319.5,147.5C 319.34,145.847 318.674,144.514 317.5,143.5C 317.02,140.557 316.02,137.89 314.5,135.5C 313.226,133.007 312.56,130.341 312.5,127.5C 311.035,111.129 311.368,94.796 313.5,78.5C 313.833,77.8333 314.167,77.1667 314.5,76.5C 318.214,72.117 321.547,67.4503 324.5,62.5C 324.833,61.5 325.5,60.8333 326.5,60.5C 327.833,59.8333 328.833,58.8333 329.5,57.5C 330.167,57.1667 330.833,56.8333 331.5,56.5C 332.833,55.8333 333.833,54.8333 334.5,53.5C 336.027,53.573 337.027,52.9063 337.5,51.5C 339.027,51.573 340.027,50.9063 340.5,49.5C 343.485,48.6743 346.151,47.341 348.5,45.5C 351.854,45.2525 354.854,44.2525 357.5,42.5C 362.999,40.8963 368.333,41.2296 373.5,43.5 Z"/></g>
<g><path style="opacity:0.076" fill="#e4e4e4" d="M 234.5,44.5 C 237.64,43.3592 240.973,43.1925 244.5,44C 247.445,44.139 249.779,45.3057 251.5,47.5C 246.107,45.1211 240.44,44.1211 234.5,44.5 Z"/></g>
<g><path style="opacity:0.718" fill="#949494" d="M 357.5,42.5 C 354.854,44.2525 351.854,45.2525 348.5,45.5C 351.146,43.7475 354.146,42.7475 357.5,42.5 Z"/></g>
<g><path style="opacity:0.998" fill="#030303" d="M 234.5,44.5 C 240.44,44.1211 246.107,45.1211 251.5,47.5C 252.167,48.8333 253.167,49.8333 254.5,50.5C 254.833,50.5 255.167,50.5 255.5,50.5C 255.427,52.0269 256.094,53.0269 257.5,53.5C 257.738,55.4044 258.738,56.7377 260.5,57.5C 261.5,59.1667 262.833,60.5 264.5,61.5C 264.427,63.0269 265.094,64.0269 266.5,64.5C 267.404,65.209 267.737,66.209 267.5,67.5C 268.314,71.116 269.648,74.4493 271.5,77.5C 271.5,78.1667 271.5,78.8333 271.5,79.5C 272.774,96.8593 272.774,114.193 271.5,131.5C 271.5,131.833 271.5,132.167 271.5,132.5C 269.154,140.193 267.821,148.193 267.5,156.5C 267.737,157.791 267.404,158.791 266.5,159.5C 264.605,160.973 262.939,162.64 261.5,164.5C 260.833,166.833 260.167,169.167 259.5,171.5C 257.596,171.738 256.262,172.738 255.5,174.5C 253.703,175.73 251.703,176.396 249.5,176.5C 240.827,176.666 232.16,176.5 223.5,176C 219.584,171.914 215.584,168.081 211.5,164.5C 211.262,162.596 210.262,161.262 208.5,160.5C 208.573,158.973 207.906,157.973 206.5,157.5C 205.833,157.5 205.5,157.167 205.5,156.5C 205.25,154.326 204.25,152.659 202.5,151.5C 201.662,151.158 201.328,150.492 201.5,149.5C 201.573,147.973 200.906,146.973 199.5,146.5C 198.249,144.618 197.082,142.618 196,140.5C 195.51,139.207 195.343,137.873 195.5,136.5C 194.611,132.569 193.278,128.902 191.5,125.5C 188.577,115.85 187.91,106.183 189.5,96.5C 191.655,94.3826 192.655,91.716 192.5,88.5C 192.5,88.1667 192.5,87.8333 192.5,87.5C 194.25,86.3406 195.25,84.674 195.5,82.5C 196.674,81.4863 197.34,80.153 197.5,78.5C 197.366,76.7085 197.699,75.0418 198.5,73.5C 199.87,71.7496 200.87,69.7496 201.5,67.5C 201.5,66.8333 201.833,66.5 202.5,66.5C 204.547,64.4504 206.214,62.117 207.5,59.5C 207.833,58.5 208.5,57.8333 209.5,57.5C 210.995,57.0113 212.329,56.3446 213.5,55.5C 215.777,54.5514 217.777,53.2181 219.5,51.5C 221.027,51.573 222.027,50.9063 222.5,49.5C 226.576,47.8139 230.576,46.1472 234.5,44.5 Z"/></g>
<g><path style="opacity:0.102" fill="#dedede" d="M 234.5,44.5 C 230.576,46.1472 226.576,47.8139 222.5,49.5C 225.768,46.2935 229.768,44.6268 234.5,44.5 Z"/></g>
<g><path style="opacity:0.082" fill="#e8e8e8" d="M 348.5,45.5 C 346.151,47.341 343.485,48.6743 340.5,49.5C 342.579,47.127 345.246,45.7936 348.5,45.5 Z"/></g>
<g><path style="opacity:0.059" fill="#e2e2e2" d="M 251.5,47.5 C 253.5,47.5 254.5,48.5 254.5,50.5C 253.167,49.8333 252.167,48.8333 251.5,47.5 Z"/></g>
<g><path style="opacity:0.004" fill="#fefffe" d="M 44.5,50.5 C 45.8333,51.1667 45.8333,51.1667 44.5,50.5 Z"/></g>
<g><path style="opacity:0.639" fill="#999999" d="M 222.5,49.5 C 222.027,50.9063 221.027,51.573 219.5,51.5C 219.973,50.0937 220.973,49.427 222.5,49.5 Z"/></g>
<g><path style="opacity:0.549" fill="#bfbfbf" d="M 340.5,49.5 C 340.027,50.9063 339.027,51.573 337.5,51.5C 337.973,50.0937 338.973,49.427 340.5,49.5 Z"/></g>
<g><path style="opacity:0.105" fill="#e2e2e2" d="M 337.5,51.5 C 337.027,52.9063 336.027,53.573 334.5,53.5C 334.821,51.9519 335.821,51.2852 337.5,51.5 Z"/></g>
<g><path style="opacity:0.463" fill="#bdbdbd" d="M 219.5,51.5 C 217.777,53.2181 215.777,54.5514 213.5,55.5C 214.708,52.9558 216.708,51.6225 219.5,51.5 Z"/></g>
<g><path style="opacity:0.353" fill="#dcdcdc" d="M 255.5,50.5 C 256.906,50.9731 257.573,51.9731 257.5,53.5C 256.094,53.0269 255.427,52.0269 255.5,50.5 Z"/></g>
<g><path style="opacity:0.004" fill="#fefffe" d="M 479.5,52.5 C 480.833,53.1667 480.833,53.1667 479.5,52.5 Z"/></g>
<g><path style="opacity:0.122" fill="#e3e3e3" d="M 376.5,45.5 C 380.894,49.2286 385.56,52.5619 390.5,55.5C 384.466,54.14 379.799,50.8066 376.5,45.5 Z"/></g>
<g><path style="opacity:0.004" fill="#fefffe" d="M 181.5,54.5 C 182.833,55.1667 182.833,55.1667 181.5,54.5 Z"/></g>
<g><path style="opacity:0.671" fill="#afafaf" d="M 257.5,53.5 C 259.262,54.2623 260.262,55.5956 260.5,57.5C 258.738,56.7377 257.738,55.4044 257.5,53.5 Z"/></g>
<g><path style="opacity:0.451" fill="#b6b6b6" d="M 334.5,53.5 C 333.833,54.8333 332.833,55.8333 331.5,56.5C 331.5,54.5 332.5,53.5 334.5,53.5 Z"/></g>
<g><path style="opacity:0.255" fill="#c1c1c1" d="M 213.5,55.5 C 212.329,56.3446 210.995,57.0113 209.5,57.5C 209.837,54.6643 211.171,53.9976 213.5,55.5 Z"/></g>
<g><path style="opacity:0.065" fill="#dfdfdf" d="M 390.5,55.5 C 392.408,56.4856 393.408,58.1523 393.5,60.5C 391.953,59.2318 390.953,57.5652 390.5,55.5 Z"/></g>
<g><path style="opacity:0.004" fill="#fefffe" d="M 57.5,56.5 C 58.8333,57.1667 58.8333,57.1667 57.5,56.5 Z"/></g>
<g><path style="opacity:0.004" fill="#fefffe" d="M 153.5,56.5 C 154.833,57.1667 154.833,57.1667 153.5,56.5 Z"/></g>
<g><path style="opacity:0.016" fill="#e1e1e1" d="M 260.5,57.5 C 262.833,57.8333 264.167,59.1667 264.5,61.5C 262.833,60.5 261.5,59.1667 260.5,57.5 Z"/></g>
<g><path style="opacity:0.294" fill="#e6e6e6" d="M 329.5,57.5 C 328.833,58.8333 327.833,59.8333 326.5,60.5C 326.5,58.5 327.5,57.5 329.5,57.5 Z"/></g>
<g><path style="opacity:0.004" fill="#fefffe" d="M 562.5,58.5 C 563.833,59.1667 563.833,59.1667 562.5,58.5 Z"/></g>
<g><path style="opacity:0.004" fill="#fefffe" d="M 460.5,62.5 C 461.833,63.1667 461.833,63.1667 460.5,62.5 Z"/></g>
<g><path style="opacity:0.373" fill="#d7d7d7" d="M 207.5,59.5 C 206.214,62.117 204.547,64.4504 202.5,66.5C 202.969,63.3567 204.636,61.0233 207.5,59.5 Z"/></g>
<g><path style="opacity:0.247" fill="#cbcbcb" d="M 264.5,61.5 C 265.906,61.9731 266.573,62.9731 266.5,64.5C 265.094,64.0269 264.427,63.0269 264.5,61.5 Z"/></g>
<g><path style="opacity:0.318" fill="#b5b5b5" d="M 395.5,64.5 C 396.906,64.9731 397.573,65.9731 397.5,67.5C 396.094,67.0269 395.427,66.0269 395.5,64.5 Z"/></g>
<g><path style="opacity:0.004" fill="#fefffe" d="M 36.5,68.5 C 37.8333,69.1667 37.8333,69.1667 36.5,68.5 Z"/></g>
<g><path style="opacity:0.133" fill="#dadada" d="M 397.5,67.5 C 399.104,68.287 399.771,69.6203 399.5,71.5C 398.326,70.4863 397.66,69.153 397.5,67.5 Z"/></g>
<g><path style="opacity:0.749" fill="#b6b6b6" d="M 201.5,67.5 C 200.87,69.7496 199.87,71.7496 198.5,73.5C 198.031,70.6067 199.031,68.6067 201.5,67.5 Z"/></g>
<g><path style="opacity:0.306" fill="#dddddd" d="M 324.5,62.5 C 321.547,67.4503 318.214,72.117 314.5,76.5C 316.677,70.9927 320.01,66.3261 324.5,62.5 Z"/></g>
<g><path style="opacity:0.031" fill="#e4e4e4" d="M 267.5,67.5 C 269.915,70.3399 271.248,73.6733 271.5,77.5C 269.648,74.4493 268.314,71.116 267.5,67.5 Z"/></g>
<g><path style="opacity:0.004" fill="#fefffe" d="M 457.5,74.5 C 458.833,75.1667 458.833,75.1667 457.5,74.5 Z"/></g>
<g><path style="opacity:0.094" fill="#ababab" d="M 197.5,78.5 C 197.34,80.153 196.674,81.4863 195.5,82.5C 195.229,80.6203 195.896,79.287 197.5,78.5 Z"/></g>
<g><path style="opacity:0.061" fill="#d8d8d8" d="M 400.5,77.5 C 402.04,79.8383 402.706,82.5049 402.5,85.5C 401.232,83.0948 400.565,80.4282 400.5,77.5 Z"/></g>
<g><path style="opacity:0.004" fill="#fefffe" d="M 111.5,81.5 C 112.833,82.1667 112.833,82.1667 111.5,81.5 Z"/></g>
<g><path style="opacity:0.247" fill="#d5d5d5" d="M 195.5,82.5 C 195.25,84.674 194.25,86.3406 192.5,87.5C 192.273,85.0672 193.273,83.4006 195.5,82.5 Z"/></g>
<g><path style="opacity:0.749" fill="#828282" d="M 192.5,88.5 C 192.655,91.716 191.655,94.3826 189.5,96.5C 190.129,93.6027 191.129,90.936 192.5,88.5 Z"/></g>
<g><path style="opacity:0.426" fill="#cacaca" d="M 313.5,78.5 C 311.368,94.796 311.035,111.129 312.5,127.5C 311.71,126.391 311.21,125.058 311,123.5C 310.203,109.138 310.536,94.8051 312,80.5C 312.278,79.5842 312.778,78.9175 313.5,78.5 Z"/></g>
<g><path style="opacity:0.067" fill="#ebebeb" d="M 402.5,87.5 C 403.802,98.867 403.468,110.2 401.5,121.5C 401.973,110.172 402.307,98.8384 402.5,87.5 Z"/></g>
<g><path style="opacity:0.004" fill="#fefffe" d="M 592.5,116.5 C 592.5,116.833 592.5,117.167 592.5,117.5C 591.83,117.019 591.83,116.685 592.5,116.5 Z"/></g>
<g><path style="opacity:0.162" fill="#e5e5e5" d="M 271.5,79.5 C 272.302,80.9516 272.802,82.6183 273,84.5C 273.667,99.8333 273.667,115.167 273,130.5C 272.617,131.056 272.117,131.389 271.5,131.5C 272.774,114.193 272.774,96.8593 271.5,79.5 Z"/></g>
<g><path style="opacity:0.004" fill="#fefffe" d="M 450.5,125.5 C 451.833,126.167 451.833,126.167 450.5,125.5 Z"/></g>
<g><path style="opacity:0.004" fill="#fefffe" d="M 439.5,129.5 C 440.833,130.167 440.833,130.167 439.5,129.5 Z"/></g>
<g><path style="opacity:0.137" fill="#d7d7d7" d="M 191.5,125.5 C 193.278,128.902 194.611,132.569 195.5,136.5C 192.81,133.453 191.476,129.787 191.5,125.5 Z"/></g>
<g><path style="opacity:0.004" fill="#fefffe" d="M 60.5,131.5 C 61.8333,132.167 61.8333,132.167 60.5,131.5 Z"/></g>
<g><path style="opacity:0.004" fill="#fefffe" d="M 452.5,131.5 C 453.833,132.167 453.833,132.167 452.5,131.5 Z"/></g>
<g><path style="opacity:0.122" fill="#d0d0d0" d="M 400.5,133.5 C 400.312,138.924 399.478,144.257 398,149.5C 397.329,150.252 396.496,150.586 395.5,150.5C 397.147,146.364 398.48,142.03 399.5,137.5C 397.894,135.604 398.227,134.271 400.5,133.5 Z"/></g>
<g><path style="opacity:0.064" fill="#e7e7e7" d="M 314.5,135.5 C 316.02,137.89 317.02,140.557 317.5,143.5C 315.018,141.497 314.018,138.831 314.5,135.5 Z"/></g>
<g><path style="opacity:0.122" fill="#e7e7e7" d="M 447.5,142.5 C 445.044,141.738 442.544,141.071 440,140.5C 436.436,141.7 432.936,143.034 429.5,144.5C 433.51,140.111 438.51,138.611 444.5,140C 445.942,140.377 446.942,141.21 447.5,142.5 Z"/></g>
<g><path style="opacity:0.999" fill="#020202" d="M 447.5,142.5 C 448.29,143.401 449.29,144.068 450.5,144.5C 452.153,144.66 453.486,145.326 454.5,146.5C 454.918,147.222 455.584,147.722 456.5,148C 459.146,148.497 461.813,148.664 464.5,148.5C 465.167,149.833 466.167,150.833 467.5,151.5C 467.5,154.5 467.5,157.5 467.5,160.5C 467.273,162.933 468.273,164.599 470.5,165.5C 470.5,165.833 470.5,166.167 470.5,166.5C 470.171,169.228 470.837,171.562 472.5,173.5C 473.612,175.599 474.279,177.933 474.5,180.5C 475.833,183.833 475.833,187.167 474.5,190.5C 474.802,193.059 474.468,195.393 473.5,197.5C 472.511,200.726 471.511,204.06 470.5,207.5C 469.199,208.882 468.366,210.548 468,212.5C 468.082,216.242 467.915,219.909 467.5,223.5C 466.946,225.889 465.446,227.555 463,228.5C 462.517,229.448 462.351,230.448 462.5,231.5C 462.737,232.791 462.404,233.791 461.5,234.5C 460.469,236.961 459.802,239.627 459.5,242.5C 457.611,243.604 455.945,244.937 454.5,246.5C 454.5,247.167 454.167,247.5 453.5,247.5C 452.094,247.973 451.427,248.973 451.5,250.5C 451.5,251.167 451.167,251.5 450.5,251.5C 448.167,253.167 446.167,255.167 444.5,257.5C 444.672,258.492 444.338,259.158 443.5,259.5C 441.463,260.846 439.463,262.18 437.5,263.5C 437.5,264.167 437.167,264.5 436.5,264.5C 434.973,264.427 433.973,265.094 433.5,266.5C 431.566,267.11 429.899,268.11 428.5,269.5C 428.5,270.167 428.167,270.5 427.5,270.5C 425.147,271.34 423.147,272.674 421.5,274.5C 420.395,275.6 419.062,276.267 417.5,276.5C 413.534,277.162 409.534,277.495 405.5,277.5C 405.167,277.5 404.833,277.5 404.5,277.5C 402.819,275.992 400.819,274.992 398.5,274.5C 396.54,272.844 394.54,271.177 392.5,269.5C 390.122,267.122 387.455,265.122 384.5,263.5C 383.089,261.086 381.089,259.419 378.5,258.5C 377.627,254.017 376.627,249.683 375.5,245.5C 375.5,236.5 375.5,227.5 375.5,218.5C 375.205,216.265 375.539,214.265 376.5,212.5C 378.008,210.819 379.008,208.819 379.5,206.5C 380.924,204.485 381.59,202.152 381.5,199.5C 381.5,199.167 381.5,198.833 381.5,198.5C 383.341,196.151 384.674,193.485 385.5,190.5C 386.906,190.027 387.573,189.027 387.5,187.5C 387.5,187.167 387.5,186.833 387.5,186.5C 388.906,186.027 389.573,185.027 389.5,183.5C 392.815,180.875 395.149,177.542 396.5,173.5C 397.906,173.027 398.573,172.027 398.5,170.5C 400.167,169.5 401.5,168.167 402.5,166.5C 403.833,165.833 404.833,164.833 405.5,163.5C 407.749,162.92 409.415,161.587 410.5,159.5C 411.833,158.833 412.833,157.833 413.5,156.5C 416.427,155.243 418.761,153.243 420.5,150.5C 422.777,149.551 424.777,148.218 426.5,146.5C 428.027,146.573 429.027,145.906 429.5,144.5C 432.936,143.034 436.436,141.7 440,140.5C 442.544,141.071 445.044,141.738 447.5,142.5 Z"/></g>
<g><path style="opacity:0.09" fill="#e9e9e9" d="M 447.5,142.5 C 449.179,142.285 450.179,142.952 450.5,144.5C 449.29,144.068 448.29,143.401 447.5,142.5 Z"/></g>
<g><path style="opacity:0.004" fill="#fefffe" d="M 151.5,143.5 C 152.833,144.167 152.833,144.167 151.5,143.5 Z"/></g>
<g><path style="opacity:0.082" fill="#eaeaea" d="M 317.5,143.5 C 318.674,144.514 319.34,145.847 319.5,147.5C 317.896,146.713 317.229,145.38 317.5,143.5 Z"/></g>
<g><path style="opacity:0.553" fill="#939393" d="M 429.5,144.5 C 429.027,145.906 428.027,146.573 426.5,146.5C 426.973,145.094 427.973,144.427 429.5,144.5 Z"/></g>
<g><path style="opacity:0.086" fill="#f0f0f0" d="M 199.5,146.5 C 200.906,146.973 201.573,147.973 201.5,149.5C 200.094,149.027 199.427,148.027 199.5,146.5 Z"/></g>
<g><path style="opacity:0.251" fill="#d5d5d5" d="M 426.5,146.5 C 424.777,148.218 422.777,149.551 420.5,150.5C 421.708,147.956 423.708,146.622 426.5,146.5 Z"/></g>
<g><path style="opacity:0.193" fill="#e7e7e7" d="M 454.5,146.5 C 458.011,146.899 461.344,147.566 464.5,148.5C 461.813,148.664 459.146,148.497 456.5,148C 455.584,147.722 454.918,147.222 454.5,146.5 Z"/></g>
<g><path style="opacity:0.286" fill="#cdcdcd" d="M 271.5,132.5 C 271.174,140.807 269.84,148.807 267.5,156.5C 267.821,148.193 269.154,140.193 271.5,132.5 Z"/></g>
<g><path style="opacity:0.016" fill="#dedede" d="M 320.5,149.5 C 322.262,150.262 323.262,151.596 323.5,153.5C 321.738,152.738 320.738,151.404 320.5,149.5 Z"/></g>
<g><path style="opacity:0.078" fill="#ededed" d="M 464.5,148.5 C 466.5,148.5 467.5,149.5 467.5,151.5C 466.167,150.833 465.167,149.833 464.5,148.5 Z"/></g>
<g><path style="opacity:0.071" fill="#dddddd" d="M 395.5,150.5 C 395.573,152.027 394.906,153.027 393.5,153.5C 393.427,151.973 394.094,150.973 395.5,150.5 Z"/></g>
<g><path style="opacity:0.125" fill="#f1f1f1" d="M 202.5,151.5 C 204.25,152.659 205.25,154.326 205.5,156.5C 203.75,155.341 202.75,153.674 202.5,151.5 Z"/></g>
<g><path style="opacity:0.047" fill="#d5d5d5" d="M 393.5,153.5 C 393.293,156.241 392.293,158.574 390.5,160.5C 390.707,157.759 391.707,155.426 393.5,153.5 Z"/></g>
<g><path style="opacity:0.565" fill="#a1a1a1" d="M 420.5,150.5 C 418.761,153.243 416.427,155.243 413.5,156.5C 415.239,153.757 417.573,151.757 420.5,150.5 Z"/></g>
<g><path style="opacity:0.037" fill="#e9e9e9" d="M 413.5,156.5 C 412.833,157.833 411.833,158.833 410.5,159.5C 410.167,159.5 409.833,159.5 409.5,159.5C 409.694,157.088 411.027,156.088 413.5,156.5 Z"/></g>
<g><path style="opacity:0.004" fill="#d8d8d8" d="M 206.5,157.5 C 207.906,157.973 208.573,158.973 208.5,160.5C 207.094,160.027 206.427,159.027 206.5,157.5 Z"/></g>
<g><path style="opacity:0.053" fill="#e4e4e4" d="M 325.5,157.5 C 326.674,158.514 327.34,159.847 327.5,161.5C 325.896,160.713 325.229,159.38 325.5,157.5 Z"/></g>
<g><path style="opacity:0.004" fill="#fefffe" d="M 540.5,159.5 C 541.833,160.167 541.833,160.167 540.5,159.5 Z"/></g>
<g><path style="opacity:0.999" fill="#040404" d="M 173.5,161.5 C 175.728,164.45 178.728,166.116 182.5,166.5C 183.167,166.5 183.5,166.833 183.5,167.5C 183.973,168.906 184.973,169.573 186.5,169.5C 188.262,170.262 189.262,171.596 189.5,173.5C 190.5,175.167 191.833,176.5 193.5,177.5C 195.264,182.022 197.264,186.355 199.5,190.5C 199.5,190.833 199.5,191.167 199.5,191.5C 199.5,192.833 200.167,193.5 201.5,193.5C 202.167,194.833 203.167,195.833 204.5,196.5C 204.242,200.367 204.908,204.034 206.5,207.5C 208.94,211.277 208.94,214.944 206.5,218.5C 206.5,219.833 206.5,221.167 206.5,222.5C 206.654,224.97 207.654,226.97 209.5,228.5C 210.833,230.5 210.833,232.5 209.5,234.5C 208.5,234.833 207.833,235.5 207.5,236.5C 207.027,237.906 206.027,238.573 204.5,238.5C 202.973,238.427 201.973,239.094 201.5,240.5C 200.504,240.414 199.671,240.748 199,241.5C 198.204,244.039 198.371,246.372 199.5,248.5C 199.5,249.167 199.5,249.833 199.5,250.5C 196.988,254.866 194.988,259.533 193.5,264.5C 193.672,265.492 193.338,266.158 192.5,266.5C 191.128,267.512 189.795,268.512 188.5,269.5C 186.592,270.486 185.592,272.152 185.5,274.5C 184.833,275.833 183.833,276.833 182.5,277.5C 180.77,278.026 179.436,279.026 178.5,280.5C 178.5,281.167 178.167,281.5 177.5,281.5C 175.251,282.08 173.585,283.413 172.5,285.5C 171.942,286.79 170.942,287.623 169.5,288C 166.132,288.543 162.799,288.376 159.5,287.5C 157.485,286.076 155.152,285.41 152.5,285.5C 152.167,285.5 151.833,285.5 151.5,285.5C 150.486,284.326 149.153,283.66 147.5,283.5C 142.963,280.737 138.63,277.737 134.5,274.5C 134.262,272.596 133.262,271.262 131.5,270.5C 130.4,269.395 129.733,268.062 129.5,266.5C 128.07,262.646 126.403,258.979 124.5,255.5C 123.89,254.609 123.557,253.609 123.5,252.5C 123.204,250.597 122.537,248.93 121.5,247.5C 120.739,243.216 119.405,239.216 117.5,235.5C 116.566,234.432 116.232,233.099 116.5,231.5C 116.5,226.833 116.5,222.167 116.5,217.5C 117.924,215.485 118.59,213.152 118.5,210.5C 118.5,210.167 118.5,209.833 118.5,209.5C 119.931,208.22 120.598,206.553 120.5,204.5C 120.66,202.847 121.326,201.514 122.5,200.5C 123.906,200.027 124.573,199.027 124.5,197.5C 126.008,195.819 127.008,193.819 127.5,191.5C 129.262,190.738 130.262,189.404 130.5,187.5C 132.218,185.777 133.551,183.777 134.5,181.5C 136.587,180.415 137.92,178.749 138.5,176.5C 139.906,176.027 140.573,175.027 140.5,173.5C 141.167,173.5 141.5,173.167 141.5,172.5C 143.063,171.055 144.396,169.389 145.5,167.5C 146.5,167.167 147.167,166.5 147.5,165.5C 148.5,165.167 149.167,164.5 149.5,163.5C 149.842,162.662 150.508,162.328 151.5,162.5C 153.153,162.34 154.486,161.674 155.5,160.5C 160.65,159.349 165.984,159.183 171.5,160C 172.416,160.278 173.082,160.778 173.5,161.5 Z"/></g>
<g><path style="opacity:0.243" fill="#c9c9c9" d="M 155.5,160.5 C 154.486,161.674 153.153,162.34 151.5,162.5C 152.287,160.896 153.62,160.229 155.5,160.5 Z"/></g>
<g><path style="opacity:0.004" fill="#dddddd" d="M 173.5,161.5 C 176.856,162.611 179.856,164.277 182.5,166.5C 178.728,166.116 175.728,164.45 173.5,161.5 Z"/></g>
<g><path style="opacity:0.008" fill="#e1e1e1" d="M 208.5,160.5 C 210.262,161.262 211.262,162.596 211.5,164.5C 209.738,163.738 208.738,162.404 208.5,160.5 Z"/></g>
<g><path style="opacity:0.129" fill="#dbdbdb" d="M 266.5,159.5 C 265.931,162.335 264.264,164.001 261.5,164.5C 262.939,162.64 264.605,160.973 266.5,159.5 Z"/></g>
<g><path style="opacity:0.004" fill="#fefffe" d="M 64.5,162.5 C 65.8333,163.167 65.8333,163.167 64.5,162.5 Z"/></g>
<g><path style="opacity:0.675" fill="#707070" d="M 409.5,159.5 C 409.833,159.5 410.167,159.5 410.5,159.5C 409.415,161.587 407.749,162.92 405.5,163.5C 406.5,161.833 407.833,160.5 409.5,159.5 Z"/></g>
<g><path style="opacity:0.416" fill="#e6e6e6" d="M 149.5,163.5 C 149.167,164.5 148.5,165.167 147.5,165.5C 147.5,164.167 148.167,163.5 149.5,163.5 Z"/></g>
<g><path style="opacity:0.075" fill="#d8d8d8" d="M 327.5,161.5 C 328.906,161.973 329.573,162.973 329.5,164.5C 328.094,164.027 327.427,163.027 327.5,161.5 Z"/></g>
<g><path style="opacity:0.227" fill="#d3d3d3" d="M 467.5,160.5 C 468.89,161.899 469.89,163.566 470.5,165.5C 468.273,164.599 467.273,162.933 467.5,160.5 Z"/></g>
<g><path style="opacity:0.161" fill="#dedede" d="M 405.5,163.5 C 404.833,164.833 403.833,165.833 402.5,166.5C 402.5,164.5 403.5,163.5 405.5,163.5 Z"/></g>
<g><path style="opacity:0.192" fill="#cccccc" d="M 147.5,165.5 C 147.167,166.5 146.5,167.167 145.5,167.5C 145.5,166.167 146.167,165.5 147.5,165.5 Z"/></g>
<g><path style="opacity:0.024" fill="#f1f1f1" d="M 389.5,162.5 C 389.631,165.367 388.297,167.033 385.5,167.5C 386.864,165.809 388.197,164.142 389.5,162.5 Z"/></g>
<g><path style="opacity:0.055" fill="#d3d3d3" d="M 183.5,167.5 C 185.027,167.427 186.027,168.094 186.5,169.5C 184.973,169.573 183.973,168.906 183.5,167.5 Z"/></g>
<g><path style="opacity:0.259" fill="#d4d4d4" d="M 402.5,166.5 C 401.5,168.167 400.167,169.5 398.5,170.5C 398.833,168.167 400.167,166.833 402.5,166.5 Z"/></g>
<g><path style="opacity:0.322" fill="#d6d6d6" d="M 145.5,167.5 C 144.396,169.389 143.063,171.055 141.5,172.5C 141.67,169.796 143.003,168.129 145.5,167.5 Z"/></g>
<g><path style="opacity:0.192" fill="#dadada" d="M 385.5,167.5 C 384.341,169.25 382.674,170.25 380.5,170.5C 381.659,168.75 383.326,167.75 385.5,167.5 Z"/></g>
<g><path style="opacity:0.004" fill="#fefffe" d="M 282.5,169.5 C 283.833,170.167 283.833,170.167 282.5,169.5 Z"/></g>
<g><path style="opacity:0.004" fill="#e3e3e3" d="M 331.5,168.5 C 333.833,170.167 335.833,172.167 337.5,174.5C 334.5,173.5 332.5,171.5 331.5,168.5 Z"/></g>
<g><path style="opacity:0.792" fill="#9d9d9d" d="M 470.5,166.5 C 471.924,168.515 472.59,170.848 472.5,173.5C 470.837,171.562 470.171,169.228 470.5,166.5 Z"/></g>
<g><path style="opacity:0.004" fill="#fefffe" d="M 55.5,171.5 C 56.8333,172.167 56.8333,172.167 55.5,171.5 Z"/></g>
<g><path style="opacity:0.004" fill="#fefffe" d="M 45.5,172.5 C 46.8333,173.167 46.8333,173.167 45.5,172.5 Z"/></g>
<g><path style="opacity:0.094" fill="#efefef" d="M 259.5,171.5 C 258.738,173.262 257.404,174.262 255.5,174.5C 256.262,172.738 257.596,171.738 259.5,171.5 Z"/></g>
<g><path style="opacity:0.082" fill="#e5e5e5" d="M 380.5,170.5 C 378.948,173.112 376.614,174.445 373.5,174.5C 375.336,172.412 377.669,171.079 380.5,170.5 Z"/></g>
<g><path style="opacity:0.137" fill="#d7d7d7" d="M 398.5,170.5 C 398.573,172.027 397.906,173.027 396.5,173.5C 396.427,171.973 397.094,170.973 398.5,170.5 Z"/></g>
<g><path style="opacity:0.065" fill="#eaeaea" d="M 189.5,173.5 C 192.142,173.488 193.475,174.821 193.5,177.5C 191.833,176.5 190.5,175.167 189.5,173.5 Z"/></g>
<g><path style="opacity:0.004" fill="#fefffe" d="M 64.5,174.5 C 65.8333,175.167 65.8333,175.167 64.5,174.5 Z"/></g>
<g><path style="opacity:0.004" fill="#fefffe" d="M 78.5,175.5 C 79.8333,176.167 79.8333,176.167 78.5,175.5 Z"/></g>
<g><path style="opacity:0.373" fill="#c7c7c7" d="M 140.5,173.5 C 140.573,175.027 139.906,176.027 138.5,176.5C 138.427,174.973 139.094,173.973 140.5,173.5 Z"/></g>
<g><path style="opacity:0.149" fill="#cacaca" d="M 337.5,174.5 C 339.027,174.427 340.027,175.094 340.5,176.5C 338.973,176.573 337.973,175.906 337.5,174.5 Z"/></g>
<g><path style="opacity:0.1" fill="#dbdbdb" d="M 211.5,164.5 C 215.584,168.081 219.584,171.914 223.5,176C 232.16,176.5 240.827,176.666 249.5,176.5C 240.676,177.657 231.676,177.824 222.5,177C 218.253,173.258 214.586,169.092 211.5,164.5 Z"/></g>
<g><path style="opacity:0.004" fill="#fefffe" d="M 372.5,177.5 C 373.833,178.167 373.833,178.167 372.5,177.5 Z"/></g>
<g><path style="opacity:0.004" fill="#fefffe" d="M 132.5,178.5 C 133.833,179.167 133.833,179.167 132.5,178.5 Z"/></g>
<g><path style="opacity:0.616" fill="#b3b3b3" d="M 343.5,177.5 C 350.833,178.833 358.167,178.833 365.5,177.5C 358.138,181.432 350.805,181.432 343.5,177.5 Z"/></g>
<g><path style="opacity:0.184" fill="#dfdfdf" d="M 396.5,173.5 C 395.149,177.542 392.815,180.875 389.5,183.5C 391.344,179.808 393.677,176.475 396.5,173.5 Z"/></g>
<g><path style="opacity:0.153" fill="#c5c5c5" d="M 138.5,176.5 C 137.92,178.749 136.587,180.415 134.5,181.5C 135.08,179.251 136.413,177.585 138.5,176.5 Z"/></g>
<g><path style="opacity:0.106" fill="#dbdbdb" d="M 474.5,180.5 C 478.327,183.925 478.327,187.258 474.5,190.5C 475.833,187.167 475.833,183.833 474.5,180.5 Z"/></g>
<g><path style="opacity:0.388" fill="#dcdcdc" d="M 134.5,181.5 C 133.551,183.777 132.218,185.777 130.5,187.5C 130.622,184.708 131.956,182.708 134.5,181.5 Z"/></g>
<g><path style="opacity:0.043" fill="#e7e7e7" d="M 193.5,177.5 C 196.855,181.211 198.855,185.544 199.5,190.5C 197.264,186.355 195.264,182.022 193.5,177.5 Z"/></g>
<g><path style="opacity:0.004" fill="#fefffe" d="M 220.5,185.5 C 221.833,186.167 221.833,186.167 220.5,185.5 Z"/></g>
<g><path style="opacity:0.188" fill="#e3e3e3" d="M 389.5,183.5 C 389.573,185.027 388.906,186.027 387.5,186.5C 387.427,184.973 388.094,183.973 389.5,183.5 Z"/></g>
<g><path style="opacity:0.306" fill="#b8b8b8" d="M 130.5,187.5 C 130.262,189.404 129.262,190.738 127.5,191.5C 127.738,189.596 128.738,188.262 130.5,187.5 Z"/></g>
<g><path style="opacity:0.318" fill="#898989" d="M 387.5,187.5 C 387.573,189.027 386.906,190.027 385.5,190.5C 385.427,188.973 386.094,187.973 387.5,187.5 Z"/></g>
<g><path style="opacity:0.404" fill="#ebebeb" d="M 127.5,191.5 C 127.008,193.819 126.008,195.819 124.5,197.5C 124.461,194.911 125.461,192.911 127.5,191.5 Z"/></g>
<g><path style="opacity:0.333" fill="#d7d7d7" d="M 199.5,191.5 C 200.5,191.833 201.167,192.5 201.5,193.5C 200.167,193.5 199.5,192.833 199.5,191.5 Z"/></g>
<g><path style="opacity:0.004" fill="#dedede" d="M 201.5,193.5 C 203.5,193.5 204.5,194.5 204.5,196.5C 203.167,195.833 202.167,194.833 201.5,193.5 Z"/></g>
<g><path style="opacity:0.008" fill="#dbdbdb" d="M 385.5,190.5 C 384.674,193.485 383.341,196.151 381.5,198.5C 381.794,195.246 383.127,192.579 385.5,190.5 Z"/></g>
<g><path style="opacity:0.161" fill="#b2b2b2" d="M 124.5,197.5 C 124.573,199.027 123.906,200.027 122.5,200.5C 122.427,198.973 123.094,197.973 124.5,197.5 Z"/></g>
<g><path style="opacity:0.157" fill="#d5d5d5" d="M 473.5,197.5 C 473.975,201.416 472.975,204.749 470.5,207.5C 471.511,204.06 472.511,200.726 473.5,197.5 Z"/></g>
<g><path style="opacity:0.682" fill="#797979" d="M 381.5,199.5 C 381.59,202.152 380.924,204.485 379.5,206.5C 379.5,205.833 379.5,205.167 379.5,204.5C 379.402,202.447 380.069,200.78 381.5,199.5 Z"/></g>
<g><path style="opacity:0.137" fill="#dfdfdf" d="M 120.5,204.5 C 120.598,206.553 119.931,208.22 118.5,209.5C 118.402,207.447 119.069,205.78 120.5,204.5 Z"/></g>
<g><path style="opacity:0.067" fill="#e3e3e3" d="M 206.5,207.5 C 209.303,210.204 210.137,213.537 209,217.5C 208.329,218.252 207.496,218.586 206.5,218.5C 208.94,214.944 208.94,211.277 206.5,207.5 Z"/></g>
<g><path style="opacity:0.314" fill="#e1e1e1" d="M 379.5,204.5 C 379.5,205.167 379.5,205.833 379.5,206.5C 379.008,208.819 378.008,210.819 376.5,212.5C 376.98,209.557 377.98,206.89 379.5,204.5 Z"/></g>
<g><path style="opacity:0.004" fill="#fefffe" d="M 67.5,209.5 C 68.8333,210.167 68.8333,210.167 67.5,209.5 Z"/></g>
<g><path style="opacity:0.478" fill="#9a9a9a" d="M 118.5,210.5 C 118.59,213.152 117.924,215.485 116.5,217.5C 116.41,214.848 117.076,212.515 118.5,210.5 Z"/></g>
<g><path style="opacity:0.004" fill="#fefffe" d="M 543.5,217.5 C 544.833,218.167 544.833,218.167 543.5,217.5 Z"/></g>
<g><path style="opacity:0.999" fill="#020202" d="M 304.5,222.5 C 308.085,224.806 312.085,226.139 316.5,226.5C 317.492,226.328 318.158,226.662 318.5,227.5C 318.81,229.144 319.81,230.144 321.5,230.5C 321.5,230.833 321.5,231.167 321.5,231.5C 323.122,234.455 325.122,237.122 327.5,239.5C 328.674,240.514 329.34,241.847 329.5,243.5C 329.461,246.089 330.461,248.089 332.5,249.5C 334.118,251.785 336.118,253.785 338.5,255.5C 339.5,258.5 341.5,260.5 344.5,261.5C 346.62,262.403 346.954,263.737 345.5,265.5C 345.694,267.912 347.027,268.912 349.5,268.5C 349.427,270.027 350.094,271.027 351.5,271.5C 352.34,273.853 353.674,275.853 355.5,277.5C 355.5,277.833 355.5,278.167 355.5,278.5C 356.167,279.833 357.167,280.833 358.5,281.5C 359.08,283.749 360.413,285.415 362.5,286.5C 363.585,288.587 365.251,289.92 367.5,290.5C 368.262,292.262 369.596,293.262 371.5,293.5C 372.167,293.833 372.833,294.167 373.5,294.5C 373.973,295.906 374.973,296.573 376.5,296.5C 379.622,297.561 382.622,298.895 385.5,300.5C 390.207,302.785 395.207,304.452 400.5,305.5C 402.091,307.633 404.091,309.299 406.5,310.5C 407.167,310.5 407.5,310.833 407.5,311.5C 408.262,313.262 409.596,314.262 411.5,314.5C 412.833,315.167 413.833,316.167 414.5,317.5C 414.932,318.71 415.599,319.71 416.5,320.5C 417.338,320.842 417.672,321.508 417.5,322.5C 418.917,326.627 419.583,330.627 419.5,334.5C 419.414,335.496 419.748,336.329 420.5,337C 419.874,337.75 419.374,338.584 419,339.5C 418.501,344.489 418.334,349.489 418.5,354.5C 417.094,354.973 416.427,355.973 416.5,357.5C 414.973,357.427 413.973,358.094 413.5,359.5C 413.167,359.5 412.833,359.5 412.5,359.5C 410.181,359.992 408.181,360.992 406.5,362.5C 405.833,363.833 404.833,364.833 403.5,365.5C 400.939,366.918 398.272,367.918 395.5,368.5C 382.773,370.794 370.107,370.794 357.5,368.5C 356.22,367.069 354.553,366.402 352.5,366.5C 350.777,364.782 348.777,363.449 346.5,362.5C 343.946,363.388 341.279,363.721 338.5,363.5C 327.506,364.255 316.506,364.922 305.5,365.5C 301.3,365.81 297.3,365.143 293.5,363.5C 286.072,361.973 278.739,362.306 271.5,364.5C 269.447,364.402 267.78,365.069 266.5,366.5C 264.62,366.229 263.287,366.896 262.5,368.5C 262.158,369.338 261.492,369.672 260.5,369.5C 256.313,370.756 252.646,372.756 249.5,375.5C 247.698,376.458 245.698,377.125 243.5,377.5C 235.133,377.705 226.8,377.371 218.5,376.5C 217.833,376.5 217.167,376.5 216.5,376.5C 215.22,375.069 213.553,374.402 211.5,374.5C 208.021,372.597 204.354,370.93 200.5,369.5C 200.167,369.5 199.833,369.5 199.5,369.5C 198.341,367.75 196.674,366.75 194.5,366.5C 193.738,364.738 192.404,363.738 190.5,363.5C 189.508,363.672 188.842,363.338 188.5,362.5C 187.833,361.167 186.833,360.167 185.5,359.5C 185.167,358.5 184.5,357.833 183.5,357.5C 183.25,355.326 182.25,353.659 180.5,352.5C 179.888,349.696 179.888,346.696 180.5,343.5C 182.294,336.651 183.961,329.651 185.5,322.5C 187.403,319.021 189.07,315.354 190.5,311.5C 190.833,310.833 191.167,310.167 191.5,309.5C 192.906,309.027 193.573,308.027 193.5,306.5C 195.633,304.909 197.299,302.909 198.5,300.5C 200.833,298.833 202.833,296.833 204.5,294.5C 205.514,293.326 206.847,292.66 208.5,292.5C 210.23,291.974 211.564,290.974 212.5,289.5C 212.833,289.5 213.167,289.5 213.5,289.5C 218.279,287.109 222.279,283.776 225.5,279.5C 227.587,278.415 228.92,276.749 229.5,274.5C 229.328,273.508 229.662,272.842 230.5,272.5C 231.401,271.71 232.068,270.71 232.5,269.5C 234.027,269.573 235.027,268.906 235.5,267.5C 238.089,266.581 240.089,264.914 241.5,262.5C 241.5,261.833 241.833,261.5 242.5,261.5C 244.914,260.089 246.581,258.089 247.5,255.5C 249.984,253.2 251.984,250.533 253.5,247.5C 254.906,247.027 255.573,246.027 255.5,244.5C 257.587,243.415 258.92,241.749 259.5,239.5C 263.5,236.167 267.167,232.5 270.5,228.5C 271.5,228.167 272.167,227.5 272.5,226.5C 273.78,225.069 275.447,224.402 277.5,224.5C 280.495,224.706 283.162,224.04 285.5,222.5C 290.47,221.834 295.47,221.167 300.5,220.5C 302.026,220.994 303.359,221.661 304.5,222.5 Z"/></g>
<g><path style="opacity:0.047" fill="#d5d5d5" d="M 304.5,222.5 C 308.787,223.232 312.787,224.565 316.5,226.5C 312.085,226.139 308.085,224.806 304.5,222.5 Z"/></g>
<g><path style="opacity:0.459" fill="#c9c9c9" d="M 116.5,217.5 C 116.5,222.167 116.5,226.833 116.5,231.5C 113.961,226.849 113.961,222.182 116.5,217.5 Z"/></g>
<g><path style="opacity:0.733" fill="#959595" d="M 285.5,222.5 C 283.162,224.04 280.495,224.706 277.5,224.5C 279.838,222.96 282.505,222.294 285.5,222.5 Z"/></g>
<g><path style="opacity:0.275" fill="#e6e6e6" d="M 206.5,222.5 C 208.346,224.03 209.346,226.03 209.5,228.5C 207.654,226.97 206.654,224.97 206.5,222.5 Z"/></g>
<g><path style="opacity:0.11" fill="#e4e4e4" d="M 272.5,226.5 C 272.167,227.5 271.5,228.167 270.5,228.5C 270.5,227.167 271.167,226.5 272.5,226.5 Z"/></g>
<g><path style="opacity:0.106" fill="#e0e0e0" d="M 467.5,223.5 C 467.464,227.2 465.797,229.867 462.5,231.5C 462.351,230.448 462.517,229.448 463,228.5C 465.446,227.555 466.946,225.889 467.5,223.5 Z"/></g>
<g><path style="opacity:0.024" fill="#cccccc" d="M 318.5,227.5 C 320.19,227.856 321.19,228.856 321.5,230.5C 319.81,230.144 318.81,229.144 318.5,227.5 Z"/></g>
<g><path style="opacity:0.004" fill="#fefffe" d="M 221.5,229.5 C 222.833,230.167 222.833,230.167 221.5,229.5 Z"/></g>
<g><path style="opacity:0.771" fill="#8e8e8e" d="M 375.5,218.5 C 375.5,227.5 375.5,236.5 375.5,245.5C 372.833,236.5 372.833,227.5 375.5,218.5 Z"/></g>
<g><path style="opacity:0.004" fill="#fefffe" d="M 559.5,229.5 C 560.833,230.167 560.833,230.167 559.5,229.5 Z"/></g>
<g><path style="opacity:0.463" fill="#cccccc" d="M 270.5,228.5 C 267.167,232.5 263.5,236.167 259.5,239.5C 262.167,234.833 265.833,231.167 270.5,228.5 Z"/></g>
<g><path style="opacity:0.196" fill="#bababa" d="M 321.5,231.5 C 324.687,233.344 326.687,236.011 327.5,239.5C 325.122,237.122 323.122,234.455 321.5,231.5 Z"/></g>
<g><path style="opacity:0.008" fill="#efefef" d="M 209.5,234.5 C 209.5,235.833 208.833,236.5 207.5,236.5C 207.833,235.5 208.5,234.833 209.5,234.5 Z"/></g>
<g><path style="opacity:0.004" fill="#fefffe" d="M 90.5,237.5 C 91.8333,238.167 91.8333,238.167 90.5,237.5 Z"/></g>
<g><path style="opacity:0.02" fill="#d1d1d1" d="M 117.5,235.5 C 119.405,239.216 120.739,243.216 121.5,247.5C 118.952,244.004 117.619,240.004 117.5,235.5 Z"/></g>
<g><path style="opacity:0.004" fill="#fefffe" d="M 489.5,237.5 C 490.833,238.167 490.833,238.167 489.5,237.5 Z"/></g>
<g><path style="opacity:0.004" fill="#fefffe" d="M 472.5,238.5 C 473.833,239.167 473.833,239.167 472.5,238.5 Z"/></g>
<g><path style="opacity:0.004" fill="#fefffe" d="M 569.5,238.5 C 570.833,239.167 570.833,239.167 569.5,238.5 Z"/></g>
<g><path style="opacity:0.008" fill="#f4f4f4" d="M 204.5,238.5 C 204.027,239.906 203.027,240.573 201.5,240.5C 201.973,239.094 202.973,238.427 204.5,238.5 Z"/></g>
<g><path style="opacity:0.396" fill="#c7c7c7" d="M 461.5,234.5 C 461.889,237.553 461.223,240.22 459.5,242.5C 459.802,239.627 460.469,236.961 461.5,234.5 Z"/></g>
<g><path style="opacity:0.298" fill="#afafaf" d="M 259.5,239.5 C 258.92,241.749 257.587,243.415 255.5,244.5C 256.08,242.251 257.413,240.585 259.5,239.5 Z"/></g>
<g><path style="opacity:0.132" fill="#e0e0e0" d="M 201.5,240.5 C 199.774,242.82 199.107,245.487 199.5,248.5C 198.371,246.372 198.204,244.039 199,241.5C 199.671,240.748 200.504,240.414 201.5,240.5 Z"/></g>
<g><path style="opacity:0.008" fill="#f2f2f2" d="M 459.5,242.5 C 458.871,244.997 457.204,246.33 454.5,246.5C 455.945,244.937 457.611,243.604 459.5,242.5 Z"/></g>
<g><path style="opacity:0.004" fill="#fefffe" d="M 467.5,244.5 C 468.833,245.167 468.833,245.167 467.5,244.5 Z"/></g>
<g><path style="opacity:0.188" fill="#e5e5e5" d="M 329.5,243.5 C 331.008,245.181 332.008,247.181 332.5,249.5C 330.461,248.089 329.461,246.089 329.5,243.5 Z"/></g>
<g><path style="opacity:0.498" fill="#aaaaaa" d="M 255.5,244.5 C 255.573,246.027 254.906,247.027 253.5,247.5C 253.427,245.973 254.094,244.973 255.5,244.5 Z"/></g>
<g><path style="opacity:0.024" fill="#cdcdcd" d="M 453.5,247.5 C 453.573,249.027 452.906,250.027 451.5,250.5C 451.427,248.973 452.094,247.973 453.5,247.5 Z"/></g>
<g><path style="opacity:0.045" fill="#cfcfcf" d="M 121.5,247.5 C 122.537,248.93 123.204,250.597 123.5,252.5C 121.787,251.365 121.12,249.698 121.5,247.5 Z"/></g>
<g><path style="opacity:0.114" fill="#c1c1c1" d="M 375.5,245.5 C 376.627,249.683 377.627,254.017 378.5,258.5C 377.883,258.389 377.383,258.056 377,257.5C 375.985,253.56 375.485,249.56 375.5,245.5 Z"/></g>
<g><path style="opacity:0.251" fill="#d1d1d1" d="M 253.5,247.5 C 251.984,250.533 249.984,253.2 247.5,255.5C 248.529,252.109 250.529,249.443 253.5,247.5 Z"/></g>
<g><path style="opacity:0.004" fill="#dcdcdc" d="M 332.5,249.5 C 335.522,250.522 337.522,252.522 338.5,255.5C 336.118,253.785 334.118,251.785 332.5,249.5 Z"/></g>
<g><path style="opacity:0.004" fill="#ededed" d="M 450.5,251.5 C 449.5,254.5 447.5,256.5 444.5,257.5C 446.167,255.167 448.167,253.167 450.5,251.5 Z"/></g>
<g><path style="opacity:0.125" fill="#e0e0e0" d="M 199.5,250.5 C 198.926,254.325 197.759,257.991 196,261.5C 195.623,262.942 194.79,263.942 193.5,264.5C 194.988,259.533 196.988,254.866 199.5,250.5 Z"/></g>
<g><path style="opacity:0.369" fill="#c1c1c1" d="M 338.5,255.5 C 340.833,257.167 342.833,259.167 344.5,261.5C 341.5,260.5 339.5,258.5 338.5,255.5 Z"/></g>
<g><path style="opacity:0.147" fill="#e6e6e6" d="M 124.5,255.5 C 126.403,258.979 128.07,262.646 129.5,266.5C 126.504,263.503 124.837,259.836 124.5,255.5 Z"/></g>
<g><path style="opacity:0.341" fill="#d7d7d7" d="M 247.5,255.5 C 246.581,258.089 244.914,260.089 242.5,261.5C 243.419,258.911 245.086,256.911 247.5,255.5 Z"/></g>
<g><path style="opacity:0.392" fill="#d8d8d8" d="M 378.5,258.5 C 381.089,259.419 383.089,261.086 384.5,263.5C 381.911,262.581 379.911,260.914 378.5,258.5 Z"/></g>
<g><path style="opacity:0.004" fill="#fefffe" d="M 369.5,262.5 C 370.833,263.167 370.833,263.167 369.5,262.5 Z"/></g>
<g><path style="opacity:0.086" fill="#dedede" d="M 443.5,259.5 C 442.608,262.292 440.608,263.625 437.5,263.5C 439.463,262.18 441.463,260.846 443.5,259.5 Z"/></g>
<g><path style="opacity:0.004" fill="#fefffe" d="M 121.5,263.5 C 122.833,264.167 122.833,264.167 121.5,263.5 Z"/></g>
<g><path style="opacity:0.004" fill="#fefffe" d="M 360.5,263.5 C 361.833,264.167 361.833,264.167 360.5,263.5 Z"/></g>
<g><path style="opacity:0.302" fill="#e3e3e3" d="M 241.5,262.5 C 240.089,264.914 238.089,266.581 235.5,267.5C 236.911,265.086 238.911,263.419 241.5,262.5 Z"/></g>
<g><path style="opacity:0.008" fill="#e8e8e8" d="M 436.5,264.5 C 436.027,265.906 435.027,266.573 433.5,266.5C 433.973,265.094 434.973,264.427 436.5,264.5 Z"/></g>
<g><path style="opacity:0.361" fill="#d1d1d1" d="M 345.5,265.5 C 346.872,266.512 348.205,267.512 349.5,268.5C 347.027,268.912 345.694,267.912 345.5,265.5 Z"/></g>
<g><path style="opacity:0.294" fill="#d5d5d5" d="M 384.5,263.5 C 387.455,265.122 390.122,267.122 392.5,269.5C 389.011,268.687 386.344,266.687 384.5,263.5 Z"/></g>
<g><path style="opacity:0.059" fill="#e4e4e4" d="M 433.5,266.5 C 432.599,268.727 430.933,269.727 428.5,269.5C 429.899,268.11 431.566,267.11 433.5,266.5 Z"/></g>
<g><path style="opacity:0.039" fill="#f1f1f1" d="M 192.5,266.5 C 192.306,268.912 190.973,269.912 188.5,269.5C 189.795,268.512 191.128,267.512 192.5,266.5 Z"/></g>
<g><path style="opacity:0.569" fill="#dddddd" d="M 235.5,267.5 C 235.027,268.906 234.027,269.573 232.5,269.5C 232.973,268.094 233.973,267.427 235.5,267.5 Z"/></g>
<g><path style="opacity:0.039" fill="#f2f2f2" d="M 232.5,269.5 C 232.068,270.71 231.401,271.71 230.5,272.5C 230.285,270.821 230.952,269.821 232.5,269.5 Z"/></g>
<g><path style="opacity:0.053" fill="#ededed" d="M 131.5,270.5 C 133.262,271.262 134.262,272.596 134.5,274.5C 132.738,273.738 131.738,272.404 131.5,270.5 Z"/></g>
<g><path style="opacity:0.204" fill="#d6d6d6" d="M 349.5,268.5 C 350.906,268.973 351.573,269.973 351.5,271.5C 350.094,271.027 349.427,270.027 349.5,268.5 Z"/></g>
<g><path style="opacity:0.037" fill="#e3e3e3" d="M 188.5,269.5 C 188.047,271.565 187.047,273.232 185.5,274.5C 185.592,272.152 186.592,270.486 188.5,269.5 Z"/></g>
<g><path style="opacity:0.251" fill="#e6e6e6" d="M 392.5,269.5 C 394.54,271.177 396.54,272.844 398.5,274.5C 395.268,274.228 393.268,272.562 392.5,269.5 Z"/></g>
<g><path style="opacity:0.059" fill="#e6e6e6" d="M 427.5,270.5 C 426.198,272.822 424.198,274.155 421.5,274.5C 423.147,272.674 425.147,271.34 427.5,270.5 Z"/></g>
<g><path style="opacity:0.08" fill="#e7e7e7" d="M 351.5,271.5 C 353.822,272.802 355.155,274.802 355.5,277.5C 353.674,275.853 352.34,273.853 351.5,271.5 Z"/></g>
<g><path style="opacity:0.165" fill="#d8d8d8" d="M 398.5,274.5 C 400.819,274.992 402.819,275.992 404.5,277.5C 401.911,277.539 399.911,276.539 398.5,274.5 Z"/></g>
<g><path style="opacity:0.447" fill="#bababa" d="M 229.5,274.5 C 228.92,276.749 227.587,278.415 225.5,279.5C 226.08,277.251 227.413,275.585 229.5,274.5 Z"/></g>
<g><path style="opacity:0.131" fill="#f5f5f5" d="M 417.5,276.5 C 415.321,277.926 412.821,278.592 410,278.5C 408.293,278.492 406.793,278.158 405.5,277.5C 409.534,277.495 413.534,277.162 417.5,276.5 Z"/></g>
<g><path style="opacity:0.122" fill="#d8d8d8" d="M 134.5,274.5 C 138.63,277.737 142.963,280.737 147.5,283.5C 144.111,282.309 140.778,280.809 137.5,279C 136.117,277.729 135.117,276.229 134.5,274.5 Z"/></g>
<g><path style="opacity:0.088" fill="#ebebeb" d="M 182.5,277.5 C 182.306,279.912 180.973,280.912 178.5,280.5C 179.436,279.026 180.77,278.026 182.5,277.5 Z"/></g>
<g><path style="opacity:0.341" fill="#d6d6d6" d="M 225.5,279.5 C 222.279,283.776 218.279,287.109 213.5,289.5C 213.414,288.504 213.748,287.671 214.5,287C 218.34,284.644 222.006,282.144 225.5,279.5 Z"/></g>
<g><path style="opacity:0.2" fill="#dadada" d="M 355.5,278.5 C 357.5,278.5 358.5,279.5 358.5,281.5C 357.167,280.833 356.167,279.833 355.5,278.5 Z"/></g>
<g><path style="opacity:0.004" fill="#fefffe" d="M 209.5,281.5 C 210.833,282.167 210.833,282.167 209.5,281.5 Z"/></g>
<g><path style="opacity:0.11" fill="#e0e0e0" d="M 177.5,281.5 C 176.415,283.587 174.749,284.92 172.5,285.5C 173.585,283.413 175.251,282.08 177.5,281.5 Z"/></g>
<g><path style="opacity:0.502" fill="#c6c6c6" d="M 358.5,281.5 C 360.587,282.585 361.92,284.251 362.5,286.5C 360.413,285.415 359.08,283.749 358.5,281.5 Z"/></g>
<g><path style="opacity:0.031" fill="#eaeaea" d="M 147.5,283.5 C 149.153,283.66 150.486,284.326 151.5,285.5C 149.62,285.771 148.287,285.104 147.5,283.5 Z"/></g>
<g><path style="opacity:0.333" fill="#939393" d="M 152.5,285.5 C 155.152,285.41 157.485,286.076 159.5,287.5C 156.848,287.59 154.515,286.924 152.5,285.5 Z"/></g>
<g><path style="opacity:0.027" fill="#dddddd" d="M 362.5,286.5 C 364.749,287.08 366.415,288.413 367.5,290.5C 365.251,289.92 363.585,288.587 362.5,286.5 Z"/></g>
<g><path style="opacity:0.106" fill="#f5f5f5" d="M 212.5,289.5 C 211.564,290.974 210.23,291.974 208.5,292.5C 209.035,290.554 210.368,289.554 212.5,289.5 Z"/></g>
<g><path style="opacity:0.012" fill="#ececec" d="M 367.5,290.5 C 369.404,290.738 370.738,291.738 371.5,293.5C 369.596,293.262 368.262,292.262 367.5,290.5 Z"/></g>
<g><path style="opacity:0.004" fill="#fefffe" d="M 155.5,294.5 C 156.833,295.167 156.833,295.167 155.5,294.5 Z"/></g>
<g><path style="opacity:0.004" fill="#fefffe" d="M 506.5,294.5 C 507.833,295.167 507.833,295.167 506.5,294.5 Z"/></g>
<g><path style="opacity:0.184" fill="#e4e4e4" d="M 373.5,294.5 C 375.027,294.427 376.027,295.094 376.5,296.5C 374.973,296.573 373.973,295.906 373.5,294.5 Z"/></g>
<g><path style="opacity:0.004" fill="#fefffe" d="M 22.5,296.5 C 23.8333,297.167 23.8333,297.167 22.5,296.5 Z"/></g>
<g><path style="opacity:0.443" fill="#c6c6c6" d="M 204.5,294.5 C 202.833,296.833 200.833,298.833 198.5,300.5C 199.5,297.5 201.5,295.5 204.5,294.5 Z"/></g>
<g><path style="opacity:0.392" fill="#c5c5c5" d="M 385.5,300.5 C 391.149,300.827 396.149,302.494 400.5,305.5C 395.207,304.452 390.207,302.785 385.5,300.5 Z"/></g>
<g><path style="opacity:0.2" fill="#dbdbdb" d="M 198.5,300.5 C 197.299,302.909 195.633,304.909 193.5,306.5C 194.247,303.638 195.914,301.638 198.5,300.5 Z"/></g>
<g><path style="opacity:0.129" fill="#eaeaea" d="M 400.5,305.5 C 403.362,306.247 405.362,307.914 406.5,310.5C 404.091,309.299 402.091,307.633 400.5,305.5 Z"/></g>
<g><path style="opacity:0.278" fill="#d8d8d8" d="M 193.5,306.5 C 193.573,308.027 192.906,309.027 191.5,309.5C 191.427,307.973 192.094,306.973 193.5,306.5 Z"/></g>
<g><path style="opacity:0.059" fill="#dedede" d="M 407.5,311.5 C 409.404,311.738 410.738,312.738 411.5,314.5C 409.596,314.262 408.262,313.262 407.5,311.5 Z"/></g>
<g><path style="opacity:0.082" fill="#dfdfdf" d="M 190.5,311.5 C 189.07,315.354 187.403,319.021 185.5,322.5C 185.795,318.206 187.462,314.539 190.5,311.5 Z"/></g>
<g><path style="opacity:0.082" fill="#e4e4e4" d="M 414.5,317.5 C 416.048,317.821 416.715,318.821 416.5,320.5C 415.599,319.71 414.932,318.71 414.5,317.5 Z"/></g>
<g><path style="opacity:0.004" fill="#fefffe" d="M 488.5,320.5 C 489.833,321.167 489.833,321.167 488.5,320.5 Z"/></g>
<g><path style="opacity:0.004" fill="#fefffe" d="M 115.5,322.5 C 116.833,323.167 116.833,323.167 115.5,322.5 Z"/></g>
<g><path style="opacity:0.004" fill="#fefffe" d="M 129.5,325.5 C 130.833,326.167 130.833,326.167 129.5,325.5 Z"/></g>
<g><path style="opacity:0.019" fill="#e6e6e6" d="M 417.5,322.5 C 419.091,325.646 420.758,328.812 422.5,332C 420.881,332.236 419.881,333.069 419.5,334.5C 419.583,330.627 418.917,326.627 417.5,322.5 Z"/></g>
<g><path style="opacity:0.004" fill="#fefffe" d="M 485.5,328.5 C 486.833,329.167 486.833,329.167 485.5,328.5 Z"/></g>
<g><path style="opacity:0.776" fill="#c8c8c8" d="M 185.5,322.5 C 183.961,329.651 182.294,336.651 180.5,343.5C 180.688,338.076 181.522,332.743 183,327.5C 183.374,325.509 184.207,323.842 185.5,322.5 Z"/></g>
<g><path style="opacity:0.004" fill="#fefffe" d="M 565.5,339.5 C 566.833,340.167 566.833,340.167 565.5,339.5 Z"/></g>
<g><path style="opacity:0.004" fill="#fefffe" d="M 145.5,341.5 C 146.833,342.167 146.833,342.167 145.5,341.5 Z"/></g>
<g><path style="opacity:0.112" fill="#f3f3f3" d="M 419.5,334.5 C 420.5,334.5 421.5,334.5 422.5,334.5C 422.392,336.783 421.559,338.783 420,340.5C 419.826,345.351 419.326,350.018 418.5,354.5C 418.334,349.489 418.501,344.489 419,339.5C 419.374,338.584 419.874,337.75 420.5,337C 419.748,336.329 419.414,335.496 419.5,334.5 Z"/></g>
<g><path style="opacity:0.004" fill="#fefffe" d="M 156.5,345.5 C 157.833,346.167 157.833,346.167 156.5,345.5 Z"/></g>
<g><path style="opacity:0.004" fill="#fefffe" d="M 157.5,351.5 C 158.833,352.167 158.833,352.167 157.5,351.5 Z"/></g>
<g><path style="opacity:0.008" fill="#e7e7e7" d="M 180.5,352.5 C 182.25,353.659 183.25,355.326 183.5,357.5C 181.273,356.599 180.273,354.933 180.5,352.5 Z"/></g>
<g><path style="opacity:0.004" fill="#d9d9d9" d="M 418.5,354.5 C 418.573,356.027 417.906,357.027 416.5,357.5C 416.427,355.973 417.094,354.973 418.5,354.5 Z"/></g>
<g><path style="opacity:0.004" fill="#fefffe" d="M 77.5,357.5 C 78.8333,358.167 78.8333,358.167 77.5,357.5 Z"/></g>
<g><path style="opacity:0.004" fill="#dfdfdf" d="M 183.5,357.5 C 184.5,357.833 185.167,358.5 185.5,359.5C 184.167,359.5 183.5,358.833 183.5,357.5 Z"/></g>
<g><path style="opacity:0.004" fill="#eeeeee" d="M 416.5,357.5 C 416.027,358.906 415.027,359.573 413.5,359.5C 413.973,358.094 414.973,357.427 416.5,357.5 Z"/></g>
<g><path style="opacity:0.067" fill="#cecece" d="M 185.5,359.5 C 186.833,360.167 187.833,361.167 188.5,362.5C 187.5,362.5 186.5,362.5 185.5,362.5C 185.5,361.5 185.5,360.5 185.5,359.5 Z"/></g>
<g><path style="opacity:0.267" fill="#d3d3d3" d="M 412.5,359.5 C 411.089,361.539 409.089,362.539 406.5,362.5C 408.181,360.992 410.181,359.992 412.5,359.5 Z"/></g>
<g><path style="opacity:0.541" fill="#b2b2b2" d="M 190.5,363.5 C 192.404,363.738 193.738,364.738 194.5,366.5C 192.596,366.262 191.262,365.262 190.5,363.5 Z"/></g>
<g><path style="opacity:0.024" fill="#ebebeb" d="M 271.5,364.5 C 270.22,365.931 268.553,366.598 266.5,366.5C 267.78,365.069 269.447,364.402 271.5,364.5 Z"/></g>
<g><path style="opacity:0.8" fill="#9b9b9b" d="M 293.5,363.5 C 297.3,365.143 301.3,365.81 305.5,365.5C 305.5,365.833 305.5,366.167 305.5,366.5C 300.75,368.285 296.75,367.285 293.5,363.5 Z"/></g>
<g><path style="opacity:0.033" fill="#e0e0e0" d="M 338.5,363.5 C 327.757,365.74 316.757,366.74 305.5,366.5C 305.5,366.167 305.5,365.833 305.5,365.5C 316.506,364.922 327.506,364.255 338.5,363.5 Z"/></g>
<g><path style="opacity:0.027" fill="#bcbcbc" d="M 346.5,362.5 C 348.777,363.449 350.777,364.782 352.5,366.5C 349.708,366.378 347.708,365.044 346.5,362.5 Z"/></g>
<g><path style="opacity:0.122" fill="#d2d2d2" d="M 194.5,366.5 C 196.674,366.75 198.341,367.75 199.5,369.5C 197.326,369.25 195.659,368.25 194.5,366.5 Z"/></g>
<g><path style="opacity:0.045" fill="#e7e7e7" d="M 266.5,366.5 C 265.713,368.104 264.38,368.771 262.5,368.5C 263.287,366.896 264.62,366.229 266.5,366.5 Z"/></g>
<g><path style="opacity:0.176" fill="#e4e4e4" d="M 352.5,366.5 C 354.553,366.402 356.22,367.069 357.5,368.5C 355.447,368.598 353.78,367.931 352.5,366.5 Z"/></g>
<g><path style="opacity:0.116" fill="#ededed" d="M 403.5,365.5 C 403.586,366.496 403.252,367.329 402.5,368C 400.19,368.497 397.857,368.663 395.5,368.5C 398.272,367.918 400.939,366.918 403.5,365.5 Z"/></g>
<g><path style="opacity:0.004" fill="#fefffe" d="M 297.5,369.5 C 298.833,370.167 298.833,370.167 297.5,369.5 Z"/></g>
<g><path style="opacity:0.153" fill="#e5e5e5" d="M 260.5,369.5 C 257.325,372.328 253.658,374.328 249.5,375.5C 252.646,372.756 256.313,370.756 260.5,369.5 Z"/></g>
<g><path style="opacity:0.061" fill="#dbdbdb" d="M 200.5,369.5 C 204.354,370.93 208.021,372.597 211.5,374.5C 208.353,374.263 205.353,373.43 202.5,372C 201.619,371.292 200.953,370.458 200.5,369.5 Z"/></g>
<g><path style="opacity:0.004" fill="#fefffe" d="M 441.5,371.5 C 442.833,372.167 442.833,372.167 441.5,371.5 Z"/></g>
<g><path style="opacity:0.063" fill="#d8d8d8" d="M 211.5,374.5 C 213.553,374.402 215.22,375.069 216.5,376.5C 214.447,376.598 212.78,375.931 211.5,374.5 Z"/></g>
<g><path style="opacity:0.004" fill="#fefffe" d="M 327.5,375.5 C 328.833,376.167 328.833,376.167 327.5,375.5 Z"/></g>
<g><path style="opacity:0.49" fill="#cbcbcb" d="M 218.5,376.5 C 226.8,377.371 235.133,377.705 243.5,377.5C 235.056,380.29 226.722,379.956 218.5,376.5 Z"/></g>
<g><path style="opacity:0.004" fill="#fefffe" d="M 374.5,382.5 C 375.833,383.167 375.833,383.167 374.5,382.5 Z"/></g>
<g><path style="opacity:0.004" fill="#fefffe" d="M 438.5,383.5 C 439.833,384.167 439.833,384.167 438.5,383.5 Z"/></g>
<g><path style="opacity:0.004" fill="#fefffe" d="M 427.5,394.5 C 428.833,395.167 428.833,395.167 427.5,394.5 Z"/></g>
<g><path style="opacity:0.004" fill="#fefffe" d="M 268.5,405.5 C 269.833,406.167 269.833,406.167 268.5,405.5 Z"/></g>
</svg>
